<svg xmlns="http://www.w3.org/2000/svg" xmlns:xlink="http://www.w3.org/1999/xlink" width="1440" zoomAndPan="magnify" viewBox="0 0 1080 74.999997" height="100" preserveAspectRatio="xMidYMid meet" version="1.0"><defs><clipPath id="cd489cefcb"><path d="M 0 7 L 1080 7 L 1080 75 L 0 75 Z M 0 7 " clip-rule="nonzero"/></clipPath><clipPath id="0a51b718cf"><path d="M -69.925781 -41.550781 L 1165.679688 26.839844 L 1150.011719 309.90625 L -85.59375 241.515625 Z M -69.925781 -41.550781 " clip-rule="nonzero"/></clipPath><clipPath id="f5d99afd34"><path d="M -69.925781 -41.550781 L 1165.679688 26.839844 L 1150.011719 309.90625 L -85.59375 241.515625 Z M -69.925781 -41.550781 " clip-rule="nonzero"/></clipPath></defs><g clip-path="url(#cd489cefcb)"><g clip-path="url(#0a51b718cf)"><g clip-path="url(#f5d99afd34)"><path fill="#c1918e" d="M 1063.121094 230.660156 C 1057.234375 258.789062 1033.066406 260.390625 1008.351562 267.789062 C 942.179688 287.367188 848.230469 271.460938 764.699219 266.835938 C 722.933594 264.523438 669.339844 255.347656 631.792969 261.976562 C 604.113281 266.878906 568.519531 255.3125 543.972656 259.667969 L 506.410156 257.585938 C 473.550781 255.769531 435.59375 251.835938 405.785156 257.066406 L 265.410156 251.847656 C 223.753906 258.527344 99.863281 249.285156 62.75 238.078125 L 27.871094 233.652344 C 3.050781 224.898438 -36.089844 213.25 -50.011719 194.117188 C -65.546875 173.070312 -51.835938 160.902344 -59.1875 133.320312 C -61.632812 124.363281 -73.140625 108.75 -75.199219 99.816406 C -77.257812 90.886719 -70.710938 88.863281 -69.34375 85.277344 L -68.367188 67.636719 C -64.058594 57.945312 -51.578125 58.027344 -44.882812 51.355469 C -38.1875 44.679688 -42.75 36.828125 -35.894531 29.277344 C 18.5625 -21.234375 138.441406 33.492188 230.691406 18.90625 C 302.746094 7.363281 388.15625 28.175781 461.933594 16.5625 C 479.34375 13.8125 503.113281 19.398438 517.167969 17.125 C 538.496094 13.757812 566.714844 21.199219 584.910156 18.324219 L 725.285156 23.542969 C 748.742188 19.792969 783.175781 24.25 810.335938 25.753906 C 860.898438 28.550781 916.824219 31.648438 970.792969 32.082031 C 984.324219 32.222656 991.167969 25.835938 1001.382812 23.738281 C 1023.449219 19.078125 1073.023438 25.707031 1091.554688 28.730469 C 1101.378906 44.746094 1120.957031 56.925781 1129.25 73.523438 C 1138.917969 92.308594 1138.023438 115.5 1146.003906 134.742188 C 1151.039062 147.003906 1157.300781 178.246094 1145.304688 192.445312 C 1142.4375 195.171875 1134.496094 196.285156 1132.375 199.496094 C 1123.957031 211.230469 1131.425781 216.636719 1116.082031 221.167969 C 1110.203125 225.167969 1071.597656 230.855469 1062.835938 230.757812 " fill-opacity="1" fill-rule="nonzero"/></g></g></g></svg>